<svg width="13" height="13" viewBox="0 0 13 13" fill="none" xmlns="http://www.w3.org/2000/svg">
<path d="M9.75016 4.33337H5.41683C4.81852 4.33337 4.3335 4.8184 4.3335 5.41671V9.75004C4.3335 10.3483 4.81852 10.8334 5.41683 10.8334H9.75016C10.3485 10.8334 10.8335 10.3483 10.8335 9.75004V5.41671C10.8335 4.8184 10.3485 4.33337 9.75016 4.33337Z" stroke="#848F95" stroke-linecap="round" stroke-linejoin="round"/>
<path d="M8.6665 4.33329V3.24996C8.6665 2.96264 8.55237 2.68709 8.3492 2.48393C8.14604 2.28076 7.87049 2.16663 7.58317 2.16663H3.24984C2.96252 2.16663 2.68697 2.28076 2.4838 2.48393C2.28064 2.68709 2.1665 2.96264 2.1665 3.24996V7.58329C2.1665 7.87061 2.28064 8.14616 2.4838 8.34933C2.68697 8.55249 2.96252 8.66663 3.24984 8.66663H4.33317" stroke="#848F95" stroke-linecap="round" stroke-linejoin="round"/>
</svg>
